# xmcd
#
# Track frame offsets: 
#        150
#        15633
#        33033
#        46368
#        62789
#        77097
#        91440
#        107008
#        120825
#        136320
#        151756
#        167912
#
# Disc length: 2518 seconds
#
# Revision: 2
# Processed by: cddbd v1.5.2PL0 Copyright (c) Steve Scherf et al.
# Submitted via: ExactAudioCopy v0.99pb4
#
DISCID=8909d40c
DTITLE=Oswald Sattler - Einfach Danke
DYEAR=2007
DGENRE=Volksmusik
TTITLE0=Einfach Danke
TTITLE1=Drei gute Gründe
TTITLE2=Ancora Tu
TTITLE3=Leben
TTITLE4=Spiel mir das Lied der Heimat
TTITLE5=Eine Träne wie ein Diamant
TTITLE6=Luna Di Mare
TTITLE7=Maria hilf
TTITLE8=Il Silenzio In Montagna
TTITLE9=Engel der Nacht
TTITLE10=Rosen von Südtirol
TTITLE11=Gefangen in maurischer Wüste
EXTD=
EXTT0=
EXTT1=
EXTT2=
EXTT3=
EXTT4=
EXTT5=
EXTT6=
EXTT7=
EXTT8=
EXTT9=
EXTT10=
EXTT11=
PLAYORDER=
